<svg id="Layer_1" data-name="Layer 1" xmlns="http://www.w3.org/2000/svg" viewBox="0 0 260.3 34"><defs><style>.cls-1{fill:#013a51;}</style></defs><title>acr-logo-tmp</title><path class="cls-1" d="M63.18,33.75a7,7,0,0,1-5.11-2.2,8,8,0,0,1-1.61-2.61,9.55,9.55,0,0,1-.6-3.48,9.78,9.78,0,0,1,.59-3.5,8.32,8.32,0,0,1,1.63-2.72,7.17,7.17,0,0,1,2.44-1.74,7.47,7.47,0,0,1,3-.61,7.58,7.58,0,0,1,2.16.29,8.44,8.44,0,0,1,1.84.83l.46-.77h.91L69,23h-.94a13.42,13.42,0,0,0-.54-1.82,7.23,7.23,0,0,0-.85-1.67,4.26,4.26,0,0,0-1.3-1.21,3.34,3.34,0,0,0-1.71-.43,4.48,4.48,0,0,0-2.05.48A4.69,4.69,0,0,0,60,19.79a7,7,0,0,0-1,2.34,12.47,12.47,0,0,0-.38,3.17A9.75,9.75,0,0,0,59,28.14a7.64,7.64,0,0,0,1.12,2.27,5.35,5.35,0,0,0,1.72,1.51,4.46,4.46,0,0,0,2.22.55,4.83,4.83,0,0,0,1.69-.29,4.39,4.39,0,0,0,1.34-.77,6,6,0,0,0,1-1.13,6.74,6.74,0,0,0,.71-1.39l.85.41a6.34,6.34,0,0,1-6.43,4.45Z"/><path class="cls-1" d="M81.67,27.65A7.48,7.48,0,0,1,81.29,30a5.55,5.55,0,0,1-1.07,1.93,5,5,0,0,1-1.82,1.36,5.92,5.92,0,0,1-2.32.44,5.45,5.45,0,0,1-2-.4,5.25,5.25,0,0,1-1.71-1.18,5.53,5.53,0,0,1-1.18-1.86,6.61,6.61,0,0,1-.44-2.46,6.13,6.13,0,0,1,1.53-4.3,5.6,5.6,0,0,1,7.9-.08A5.82,5.82,0,0,1,81.67,27.65Zm-2.36,0a9.74,9.74,0,0,0-.17-1.8,5.54,5.54,0,0,0-.51-1.61,3.2,3.2,0,0,0-1-1.13,2.4,2.4,0,0,0-1.44-.42,2.55,2.55,0,0,0-1.5.43,3.25,3.25,0,0,0-1,1.18,5.33,5.33,0,0,0-.51,1.58,10.26,10.26,0,0,0-.15,1.72,10.51,10.51,0,0,0,.18,2,5.9,5.9,0,0,0,.56,1.66,3.33,3.33,0,0,0,1,1.14,2.41,2.41,0,0,0,1.45.42,2.52,2.52,0,0,0,2.25-1.38A7.29,7.29,0,0,0,79.31,27.67Z"/><path class="cls-1" d="M95.66,33.37H90.18v-.75l.57,0a1.8,1.8,0,0,0,.52-.09.83.83,0,0,0,.47-.36,1.29,1.29,0,0,0,.15-.66V25.7a2.68,2.68,0,0,0-.56-1.84A1.73,1.73,0,0,0,90,23.21a3.08,3.08,0,0,0-1.11.19,3.56,3.56,0,0,0-.89.46,2.27,2.27,0,0,0-.59.56,5.38,5.38,0,0,0-.33.48v6.45a1.2,1.2,0,0,0,.16.63,1,1,0,0,0,.48.39,2.64,2.64,0,0,0,.52.17,4.89,4.89,0,0,0,.57.08v.75H83.28v-.75l.54,0a1.58,1.58,0,0,0,.48-.09.79.79,0,0,0,.47-.36,1.2,1.2,0,0,0,.16-.66V24.55a1.52,1.52,0,0,0-.17-.71,1.39,1.39,0,0,0-.46-.53,1.47,1.47,0,0,0-.51-.2,4.17,4.17,0,0,0-.63-.08v-.75L86.88,22l.16.16v1.57h.06l.68-.65a6.34,6.34,0,0,1,.77-.62,4.2,4.2,0,0,1,1-.45,4.46,4.46,0,0,1,1.31-.18,2.83,2.83,0,0,1,2.39,1A4.25,4.25,0,0,1,94,25.54v5.83a1.32,1.32,0,0,0,.14.64.89.89,0,0,0,.46.38,2.68,2.68,0,0,0,.48.16,4.22,4.22,0,0,0,.55.07Z"/><path class="cls-1" d="M104.43,27.88a3,3,0,0,1,.72.94,3.42,3.42,0,0,1-.92,3.86,4.53,4.53,0,0,1-3,1,4.45,4.45,0,0,1-1.8-.35,4.52,4.52,0,0,1-1.17-.65L98,33.4h-.85L97,29.5h.79a4.46,4.46,0,0,0,.38,1,5,5,0,0,0,.72,1.07,4,4,0,0,0,1.06.85,2.81,2.81,0,0,0,1.39.34,2.58,2.58,0,0,0,1.69-.5,1.81,1.81,0,0,0-.15-2.85A4.16,4.16,0,0,0,102,29c-.37-.14-.77-.28-1.22-.42a12.2,12.2,0,0,1-1.19-.44,4.57,4.57,0,0,1-1.11-.65,3.11,3.11,0,0,1-.82-1,2.68,2.68,0,0,1-.32-1.36,3.07,3.07,0,0,1,1-2.33,3.85,3.85,0,0,1,2.74-1,5.81,5.81,0,0,1,1.35.17,4.92,4.92,0,0,1,1.12.41l.26-.59h.82l.17,3.61H104a3.58,3.58,0,0,0-1-2,2.63,2.63,0,0,0-1.92-.76,2.13,2.13,0,0,0-1.47.47,1.46,1.46,0,0,0-.53,1.13,1.92,1.92,0,0,0,.17.85,1.63,1.63,0,0,0,.53.58,4.58,4.58,0,0,0,.86.43c.34.13.77.28,1.28.45a11.17,11.17,0,0,1,1.41.55A4.75,4.75,0,0,1,104.43,27.88Z"/><path class="cls-1" d="M119.1,33.16l-3.66.25-.17-.16V31.83h-.07c-.18.19-.38.4-.61.61a4.69,4.69,0,0,1-.78.59,4.84,4.84,0,0,1-1,.46,4.35,4.35,0,0,1-1.35.16,2.72,2.72,0,0,1-2.26-1,4.43,4.43,0,0,1-.78-2.82V24.5a1.4,1.4,0,0,0-.15-.68,1.53,1.53,0,0,0-.46-.49,1.51,1.51,0,0,0-.51-.2,4.44,4.44,0,0,0-.65-.08V22.3L110.4,22l.17.16V30a2.7,2.7,0,0,0,.54,1.83,1.7,1.7,0,0,0,1.31.61,2.93,2.93,0,0,0,1.11-.19,3.3,3.3,0,0,0,1.36-1,2.63,2.63,0,0,0,.36-.49V24.42a1.29,1.29,0,0,0-.16-.66,1.61,1.61,0,0,0-.44-.5,1.31,1.31,0,0,0-.61-.16l-.9-.05V22.3l4.08-.27.17.16v8.88a1.24,1.24,0,0,0,.16.66,1.4,1.4,0,0,0,.44.47,1.18,1.18,0,0,0,.49.16,4,4,0,0,0,.62,0Z"/><path class="cls-1" d="M139.65,33.37h-5.46v-.75l.53,0a1.71,1.71,0,0,0,.48-.09.86.86,0,0,0,.47-.36,1.29,1.29,0,0,0,.15-.66V25.67a2.76,2.76,0,0,0-.54-1.82,1.68,1.68,0,0,0-1.35-.64,3,3,0,0,0-1,.17,3,3,0,0,0-.9.48,2.57,2.57,0,0,0-.55.54,5.08,5.08,0,0,0-.34.48v6.47a1.39,1.39,0,0,0,.14.65.88.88,0,0,0,.47.39,2.79,2.79,0,0,0,.47.15,3.11,3.11,0,0,0,.55.08v.75h-5.34v-.75l.5,0a1.5,1.5,0,0,0,.45-.09.83.83,0,0,0,.47-.36,1.2,1.2,0,0,0,.16-.66V25.67a2.76,2.76,0,0,0-.54-1.82,1.71,1.71,0,0,0-1.35-.64,3.21,3.21,0,0,0-1,.17,3.27,3.27,0,0,0-.9.49,2.48,2.48,0,0,0-.56.56l-.34.47v6.42a1.18,1.18,0,0,0,.16.65,1,1,0,0,0,.47.4,3.17,3.17,0,0,0,.49.17,4.44,4.44,0,0,0,.56.08v.75h-5.44v-.75l.54,0a1.71,1.71,0,0,0,.48-.09.83.83,0,0,0,.47-.36,1.29,1.29,0,0,0,.15-.66v-7a1.28,1.28,0,0,0-.16-.65,1.43,1.43,0,0,0-.46-.49,1.79,1.79,0,0,0-.54-.23,3.52,3.52,0,0,0-.65-.1v-.75l3.75-.25.16.16v1.6h.07l.7-.67a5.6,5.6,0,0,1,.76-.63,3.64,3.64,0,0,1,1-.45,4.47,4.47,0,0,1,1.29-.18,3,3,0,0,1,1.88.58A3.26,3.26,0,0,1,131,23.86l.72-.7a6.52,6.52,0,0,1,.83-.65,3.93,3.93,0,0,1,1-.47,4.44,4.44,0,0,1,1.3-.18,2.85,2.85,0,0,1,2.25.93,4.21,4.21,0,0,1,.83,2.86v5.7a1.39,1.39,0,0,0,.13.65.88.88,0,0,0,.47.39,2.55,2.55,0,0,0,.52.15,4.35,4.35,0,0,0,.57.08Z"/><path class="cls-1" d="M150.94,30.73a5.69,5.69,0,0,1-1.89,2.14,4.75,4.75,0,0,1-2.72.79,5.66,5.66,0,0,1-2.37-.47,4.6,4.6,0,0,1-1.67-1.3,5.51,5.51,0,0,1-1-1.91,8.26,8.26,0,0,1-.32-2.31,6.85,6.85,0,0,1,.35-2.14,6.14,6.14,0,0,1,1-1.89,5,5,0,0,1,1.61-1.3,4.65,4.65,0,0,1,2.16-.5,5.18,5.18,0,0,1,2.1.39,3.82,3.82,0,0,1,1.42,1.06,4.12,4.12,0,0,1,.78,1.5,6.56,6.56,0,0,1,.25,1.87v.75h-7.42a8.86,8.86,0,0,0,.21,2,4.6,4.6,0,0,0,.67,1.58,3.07,3.07,0,0,0,1.16,1,3.47,3.47,0,0,0,1.7.38,3.08,3.08,0,0,0,1.74-.47,4.62,4.62,0,0,0,1.42-1.71Zm-2.52-4.27a9.48,9.48,0,0,0-.1-1.36,4.36,4.36,0,0,0-.35-1.21,2.2,2.2,0,0,0-.72-.85,1.93,1.93,0,0,0-1.17-.33,2.44,2.44,0,0,0-2,1,4.62,4.62,0,0,0-.86,2.76Z"/><path class="cls-1" d="M160.81,23.61a1.86,1.86,0,0,1-.28,1,1,1,0,0,1-.88.45,1.33,1.33,0,0,1-1-.33,1,1,0,0,1-.33-.72,2.19,2.19,0,0,1,0-.46c0-.13.05-.27.07-.41a2.59,2.59,0,0,0-1.25.43A3.77,3.77,0,0,0,156,24.82v6.53a1.13,1.13,0,0,0,.16.64.93.93,0,0,0,.48.38,3.43,3.43,0,0,0,.73.17l.78.08v.75h-5.91v-.75l.54,0a1.58,1.58,0,0,0,.48-.09.85.85,0,0,0,.48-.36,1.29,1.29,0,0,0,.15-.66V24.55a1.6,1.6,0,0,0-.17-.7,1.42,1.42,0,0,0-.46-.54,1.47,1.47,0,0,0-.51-.2,4,4,0,0,0-.63-.08v-.75l3.72-.25.16.16v1.57h.06a5.1,5.1,0,0,1,1.57-1.39,3.28,3.28,0,0,1,1.58-.48,1.5,1.5,0,0,1,1.16.47A1.71,1.71,0,0,1,160.81,23.61Z"/><path class="cls-1" d="M183.38,33.37H179q-1.44-2.26-2.61-3.91c-.77-1.1-1.61-2.23-2.52-3.4h-1.65v5.11a1.86,1.86,0,0,0,.12.7.85.85,0,0,0,.54.46,2.68,2.68,0,0,0,.71.15,8.31,8.31,0,0,0,.86.08v.81h-6.81v-.81l.79-.08a2.88,2.88,0,0,0,.72-.15,1,1,0,0,0,.49-.43,1.55,1.55,0,0,0,.16-.73V19.51a1.9,1.9,0,0,0-.12-.7.84.84,0,0,0-.53-.47,5.36,5.36,0,0,0-.74-.18,5.44,5.44,0,0,0-.77-.11v-.81h7.44a8.43,8.43,0,0,1,1.92.21,5.25,5.25,0,0,1,1.63.68,3.36,3.36,0,0,1,1.12,1.19,3.45,3.45,0,0,1,.42,1.76,4.46,4.46,0,0,1-.28,1.65,3.41,3.41,0,0,1-.84,1.24,4.87,4.87,0,0,1-1.23.85,9.44,9.44,0,0,1-1.58.6c.79,1.06,1.46,1.94,2,2.66l1.94,2.63a5.15,5.15,0,0,0,.9,1,4.42,4.42,0,0,0,.8.53,2.69,2.69,0,0,0,.74.23,6.92,6.92,0,0,0,.74.09Zm-6-12a2.94,2.94,0,0,0-3.21-3.18h-1.93v6.91h1.48a3.5,3.5,0,0,0,3.66-3.73Z"/><path class="cls-1" d="M193.67,30.73a5.69,5.69,0,0,1-1.89,2.14,4.75,4.75,0,0,1-2.72.79,5.58,5.58,0,0,1-2.36-.47,4.64,4.64,0,0,1-1.68-1.3A5.32,5.32,0,0,1,184,30a7.91,7.91,0,0,1-.33-2.31,6.85,6.85,0,0,1,.35-2.14,6,6,0,0,1,1-1.89,4.85,4.85,0,0,1,1.6-1.3,4.65,4.65,0,0,1,2.16-.5,5.11,5.11,0,0,1,2.1.39,3.74,3.74,0,0,1,1.42,1.06,4.12,4.12,0,0,1,.78,1.5,6.56,6.56,0,0,1,.25,1.87v.75H186a8.86,8.86,0,0,0,.21,2,4.8,4.8,0,0,0,.67,1.58A3.07,3.07,0,0,0,188,32a3.5,3.5,0,0,0,1.7.38,3.12,3.12,0,0,0,1.75-.47,4.61,4.61,0,0,0,1.41-1.71Zm-2.51-4.27a9.56,9.56,0,0,0-.11-1.36,4,4,0,0,0-.35-1.21A2.27,2.27,0,0,0,190,23a2,2,0,0,0-1.18-.33,2.44,2.44,0,0,0-2,1,4.69,4.69,0,0,0-.86,2.76Z"/><path class="cls-1" d="M202.36,27.88a3,3,0,0,1,.72.94,3.42,3.42,0,0,1-.92,3.86,4.52,4.52,0,0,1-3,1,4.46,4.46,0,0,1-1.81-.35,4.7,4.7,0,0,1-1.17-.65l-.23.74h-.85L195,29.5h.79a4.12,4.12,0,0,0,.39,1,4.63,4.63,0,0,0,.71,1.07,4,4,0,0,0,1.06.85,2.84,2.84,0,0,0,1.4.34,2.57,2.57,0,0,0,1.68-.5,1.76,1.76,0,0,0,.59-1.42,1.63,1.63,0,0,0-.19-.82,1.68,1.68,0,0,0-.55-.61,4.16,4.16,0,0,0-.92-.47c-.36-.14-.77-.28-1.22-.42a11.21,11.21,0,0,1-1.18-.44,4.46,4.46,0,0,1-1.12-.65,3.11,3.11,0,0,1-.82-1,2.79,2.79,0,0,1-.32-1.36,3.07,3.07,0,0,1,1-2.33,3.85,3.85,0,0,1,2.74-1,5.81,5.81,0,0,1,1.35.17,4.92,4.92,0,0,1,1.12.41l.26-.59h.82l.17,3.61H202a3.63,3.63,0,0,0-1-2,2.67,2.67,0,0,0-1.93-.76,2.13,2.13,0,0,0-1.47.47,1.46,1.46,0,0,0-.53,1.13,1.92,1.92,0,0,0,.17.85,1.63,1.63,0,0,0,.53.58,4.58,4.58,0,0,0,.86.43l1.28.45a11.17,11.17,0,0,1,1.41.55A4.75,4.75,0,0,1,202.36,27.88Z"/><path class="cls-1" d="M215,30.73a5.69,5.69,0,0,1-1.89,2.14,4.75,4.75,0,0,1-2.72.79,5.66,5.66,0,0,1-2.37-.47,4.69,4.69,0,0,1-1.67-1.3,5.51,5.51,0,0,1-1-1.91,8.26,8.26,0,0,1-.32-2.31,6.85,6.85,0,0,1,.35-2.14,6.14,6.14,0,0,1,1-1.89,5,5,0,0,1,1.61-1.3,4.65,4.65,0,0,1,2.16-.5,5.15,5.15,0,0,1,2.1.39,3.74,3.74,0,0,1,1.42,1.06,4.12,4.12,0,0,1,.78,1.5,6.56,6.56,0,0,1,.25,1.87v.75h-7.42a8.86,8.86,0,0,0,.21,2,4.6,4.6,0,0,0,.67,1.58,3.07,3.07,0,0,0,1.16,1,3.47,3.47,0,0,0,1.7.38,3.12,3.12,0,0,0,1.75-.47,4.7,4.7,0,0,0,1.41-1.71Zm-2.51-4.27a9.56,9.56,0,0,0-.11-1.36,4,4,0,0,0-.35-1.21,2.2,2.2,0,0,0-.72-.85,1.93,1.93,0,0,0-1.17-.33,2.44,2.44,0,0,0-2,1,4.62,4.62,0,0,0-.86,2.76Z"/><path class="cls-1" d="M226.89,33.16c-.36.13-.67.24-.94.32a3.21,3.21,0,0,1-.92.12,2.19,2.19,0,0,1-1.41-.42,2,2,0,0,1-.68-1.21h-.06a5.68,5.68,0,0,1-1.59,1.25,4.39,4.39,0,0,1-2,.43,2.9,2.9,0,0,1-2.07-.77,2.65,2.65,0,0,1-.82-2,3.21,3.21,0,0,1,.19-1.16,2.86,2.86,0,0,1,1.29-1.53,6.43,6.43,0,0,1,.88-.43c.34-.13,1-.37,2.07-.71a15.78,15.78,0,0,0,2.11-.82V25.08a4.83,4.83,0,0,0-.06-.56,2.7,2.7,0,0,0-.27-.8,2.22,2.22,0,0,0-.64-.73,1.93,1.93,0,0,0-1.18-.32,2.58,2.58,0,0,0-1,.18,1.76,1.76,0,0,0-.63.37,2.73,2.73,0,0,0,.11.67,3.59,3.59,0,0,1,.1.82,1,1,0,0,1-.35.73,1.42,1.42,0,0,1-1,.33.91.91,0,0,1-.83-.41,1.58,1.58,0,0,1,.1-1.9,3.48,3.48,0,0,1,1-.85,4.59,4.59,0,0,1,1.24-.54,4.79,4.79,0,0,1,1.42-.23,10,10,0,0,1,1.66.13,3,3,0,0,1,1.29.57,2.59,2.59,0,0,1,.88,1.14,4.89,4.89,0,0,1,.3,1.86q0,1.62,0,2.88c0,.84,0,1.75,0,2.74a1.44,1.44,0,0,0,.15.71,1.25,1.25,0,0,0,.47.44,1.06,1.06,0,0,0,.54.11l.76,0Zm-4-6c-.64.19-1.21.38-1.69.56a6.57,6.57,0,0,0-1.35.68,3.14,3.14,0,0,0-.9.92,2.32,2.32,0,0,0-.33,1.26,1.62,1.62,0,0,0,1.75,1.83,2.59,2.59,0,0,0,1.42-.39,4,4,0,0,0,1-.93Z"/><path class="cls-1" d="M236.58,23.61a1.86,1.86,0,0,1-.28,1,1,1,0,0,1-.88.45,1.33,1.33,0,0,1-1-.33,1,1,0,0,1-.33-.72,2.19,2.19,0,0,1,0-.46c0-.13.05-.27.07-.41a2.59,2.59,0,0,0-1.25.43,3.77,3.77,0,0,0-1.22,1.23v6.53a1.13,1.13,0,0,0,.16.64.93.93,0,0,0,.48.38,3.43,3.43,0,0,0,.73.17l.78.08v.75H228v-.75l.54,0a1.58,1.58,0,0,0,.48-.09.85.85,0,0,0,.48-.36,1.29,1.29,0,0,0,.15-.66V24.55a1.6,1.6,0,0,0-.17-.7,1.42,1.42,0,0,0-.46-.54,1.47,1.47,0,0,0-.51-.2,4,4,0,0,0-.63-.08v-.75L231.6,22l.16.16v1.57h.06a5.1,5.1,0,0,1,1.57-1.39,3.28,3.28,0,0,1,1.58-.48,1.52,1.52,0,0,1,1.16.47A1.71,1.71,0,0,1,236.58,23.61Z"/><path class="cls-1" d="M242.72,33.66a4.73,4.73,0,0,1-3.81-1.61,6.44,6.44,0,0,1-1.37-4.33,6.41,6.41,0,0,1,.37-2.21A5.91,5.91,0,0,1,239,23.64a5.06,5.06,0,0,1,1.68-1.3,5,5,0,0,1,2.21-.5,4.33,4.33,0,0,1,2.68.79,2.57,2.57,0,0,1,1,2.16,1.85,1.85,0,0,1-.27,1,1,1,0,0,1-.9.44,1.48,1.48,0,0,1-1-.34,1,1,0,0,1-.37-.76,4.33,4.33,0,0,1,.14-1.05,6.71,6.71,0,0,0,.16-.78,1,1,0,0,0-.61-.47,3,3,0,0,0-.87-.12,2.46,2.46,0,0,0-1,.23,2.69,2.69,0,0,0-1,.86,4.54,4.54,0,0,0-.68,1.53,8.75,8.75,0,0,0-.26,2.31,5.84,5.84,0,0,0,.94,3.45,2.86,2.86,0,0,0,2.45,1.33,3.06,3.06,0,0,0,1.85-.53,5.34,5.34,0,0,0,1.37-1.61l.73.47a5.81,5.81,0,0,1-2,2.13A4.66,4.66,0,0,1,242.72,33.66Z"/><path class="cls-1" d="M260.3,33.37h-5.51v-.75l.58,0a1.8,1.8,0,0,0,.52-.09.83.83,0,0,0,.47-.36,1.29,1.29,0,0,0,.16-.66V25.7a2.68,2.68,0,0,0-.57-1.84,1.72,1.72,0,0,0-1.37-.65,3,3,0,0,0-1.1.19,3.7,3.7,0,0,0-.91.46,2.91,2.91,0,0,0-.59.56c-.14.19-.24.35-.32.48v6.45a1.11,1.11,0,0,0,.16.63,1,1,0,0,0,.47.39,3.05,3.05,0,0,0,.51.17,5,5,0,0,0,.59.08v.75H247.9v-.75l.54,0a2.58,2.58,0,0,0,.48-.09.83.83,0,0,0,.47-.36,1.2,1.2,0,0,0,.16-.66V18.4a1.8,1.8,0,0,0-.18-.77,1.3,1.3,0,0,0-.46-.58,1.54,1.54,0,0,0-.72-.21l-.83-.09V16l4.14-.25.16.17v7.81h.05l.68-.66a6.07,6.07,0,0,1,.81-.61,4.36,4.36,0,0,1,1-.45,4.46,4.46,0,0,1,1.31-.18,2.86,2.86,0,0,1,2.31.94,4.13,4.13,0,0,1,.81,2.74v5.83a1.21,1.21,0,0,0,.15.64.92.92,0,0,0,.47.38,2.88,2.88,0,0,0,.48.15,3.11,3.11,0,0,0,.55.08Z"/><circle class="cls-1" cx="36.64" cy="8.31" r="5.29"/><circle class="cls-1" cx="20.78" cy="12.84" r="3.78"/><polygon class="cls-1" points="28.65 22.77 24.35 17.76 17.22 17.76 13 21.98 9.82 12.84 0.76 12.84 0.76 34 9.82 34 9.82 15.11 12.69 23.36 17.38 18.67 17.38 34 24.18 34 24.18 18.71 28.77 24.07 32.49 17.38 32.49 34 40.8 34 40.8 15.87 32.49 15.87 28.65 22.77"/><circle class="cls-1" cx="5.29" cy="5.29" r="5.29"/><path class="cls-1" d="M59.68,2.33V9.64H58.52V2.33H56.18v-1H62v1Z"/><path class="cls-1" d="M71,9.64V5.78h-4.4V9.64H65.42V1.36h1.17V4.78H71V1.36h1.16V9.64Z"/><path class="cls-1" d="M76.39,9.64V1.36h4.85v1H77.55V4.8H81v1H77.55V8.66h3.78v1Z"/><path class="cls-1" d="M95.53,9.64l-.85-2.16H91.13l-.86,2.16H89.05l3.37-8.3h1l3.38,8.3ZM92.9,2.79,91.45,6.51h2.9Z"/><path class="cls-1" d="M102.09,9.78a3.43,3.43,0,0,1-2.67-1.39l.68-.78a2.78,2.78,0,0,0,2.1,1.19,1.45,1.45,0,0,0,1.62-1.39c0-.87-.92-1.2-1.34-1.37s-1-.4-1.32-.55a2.15,2.15,0,0,1-1.37-2c0-1.47,1.34-2.2,2.66-2.2a3.24,3.24,0,0,1,2.38,1.06l-.61.79a2.53,2.53,0,0,0-1.83-.88c-.81,0-1.44.38-1.44,1.15s.57,1,1.07,1.26l1.52.63A2.23,2.23,0,0,1,105,7.34,2.61,2.61,0,0,1,102.09,9.78Z"/><path class="cls-1" d="M110.78,9.78a3.43,3.43,0,0,1-2.67-1.39l.68-.78a2.78,2.78,0,0,0,2.1,1.19,1.45,1.45,0,0,0,1.62-1.39c0-.87-.93-1.2-1.35-1.37s-1-.4-1.31-.55a2.13,2.13,0,0,1-1.37-2c0-1.47,1.34-2.2,2.66-2.2a3.24,3.24,0,0,1,2.38,1.06l-.62.79a2.49,2.49,0,0,0-1.82-.88c-.82,0-1.44.38-1.44,1.15s.57,1,1.07,1.26l1.52.63a2.24,2.24,0,0,1,1.44,2.07A2.61,2.61,0,0,1,110.78,9.78Z"/><path class="cls-1" d="M121.22,9.78A4.11,4.11,0,0,1,117,5.51a4.27,4.27,0,1,1,8.54,0A4.11,4.11,0,0,1,121.22,9.78Zm0-7.53a3,3,0,0,0-3.08,3.24,3.08,3.08,0,1,0,6.16,0A3,3,0,0,0,121.22,2.25Z"/><path class="cls-1" d="M133,9.78a4.07,4.07,0,0,1-4.22-4.27A4.31,4.31,0,0,1,136,2.33l-.49.94a3.25,3.25,0,0,0-2.4-1A3,3,0,0,0,130,5.49a3,3,0,0,0,3.08,3.23,3.27,3.27,0,0,0,2.47-1l.51.85A3.92,3.92,0,0,1,133,9.78Z"/><path class="cls-1" d="M139.63,9.64V1.36h1.16V9.64Z"/><path class="cls-1" d="M150.59,9.64l-.85-2.16h-3.55l-.85,2.16h-1.22l3.37-8.3h1l3.38,8.3ZM148,2.79l-1.45,3.72h2.9Z"/><path class="cls-1" d="M156.94,2.33V9.64h-1.16V2.33h-2.34v-1h5.83v1Z"/><path class="cls-1" d="M162.68,9.64V1.36h1.16V9.64Z"/><path class="cls-1" d="M171.87,9.78a4.11,4.11,0,0,1-4.27-4.27,4.27,4.27,0,1,1,8.54,0A4.11,4.11,0,0,1,171.87,9.78Zm0-7.53a3,3,0,0,0-3.08,3.24,3.08,3.08,0,1,0,6.16,0A3,3,0,0,0,171.87,2.25Z"/><path class="cls-1" d="M185.8,9.64,181,3s0,1.12,0,2.2v4.4H179.9V1.36h1.22l4.69,6.5s0-1,0-2.11V1.36h1.14V9.64Z"/><path class="cls-1" d="M197.13,2.33V5.09h3.23v1h-3.23V9.64H196V1.36h4.59v1Z"/><path class="cls-1" d="M208,9.78a4.11,4.11,0,0,1-4.27-4.27,4.27,4.27,0,0,1,8.54,0A4.11,4.11,0,0,1,208,9.78Zm0-7.53a3,3,0,0,0-3.08,3.24,3.08,3.08,0,1,0,6.16,0A3,3,0,0,0,208,2.25Z"/><path class="cls-1" d="M220.22,9.64l-2.16-3.56h-.89V9.64H216V1.36h2.34c1.47,0,2.79.69,2.79,2.33A2.21,2.21,0,0,1,219.26,6l2.36,3.68Zm-.8-7a2.21,2.21,0,0,0-1.4-.3h-.85V5.12H218a2.35,2.35,0,0,0,1.4-.29,1.26,1.26,0,0,0,.52-1.12A1.22,1.22,0,0,0,219.42,2.61Z"/></svg>